<svg id="visual" viewBox="0 0 960 540" width="960" height="540" xmlns="http://www.w3.org/2000/svg" xmlns:xlink="http://www.w3.org/1999/xlink" version="1.1"><path d="M0 346L22.8 345.5C45.7 345 91.3 344 137 349.3C182.7 354.7 228.3 366.3 274 386.8C319.7 407.3 365.3 436.7 411.2 441.5C457 446.3 503 426.7 548.8 410.3C594.7 394 640.3 381 686 380.3C731.7 379.7 777.3 391.3 823 401.5C868.7 411.7 914.3 420.3 937.2 424.7L960 429L960 541L937.2 541C914.3 541 868.7 541 823 541C777.3 541 731.7 541 686 541C640.3 541 594.7 541 548.8 541C503 541 457 541 411.2 541C365.3 541 319.7 541 274 541C228.3 541 182.7 541 137 541C91.3 541 45.7 541 22.8 541L0 541Z" fill="#000000" stroke-linecap="round" stroke-linejoin="miter"></path></svg>